<?xml version="1.0" encoding="UTF-8" standalone="no"?><svg version="1.1" id="svg2" viewBox="0 0 545 81" xml:space="preserve" xmlns="http://www.w3.org/2000/svg" xmlns:svg="http://www.w3.org/2000/svg"><defs id="defs6"><clipPath clipPathUnits="userSpaceOnUse" id="clipPath18"><path d="M 0,595.28 H 841.89 V 0 H 0 Z" id="path16" /></clipPath></defs><g id="g8" transform="matrix(1.3333333,0,0,-1.3333333,0,793.70667)"><g id="g12" transform="translate(-293.481,267.8176)"><g id="g702"><g id="g20" transform="translate(306.435,298.6334)"><path d="m 0,0 c 1.431,-0.079 2.305,-0.079 3.338,-0.079 8.583,0 12.001,2.304 12.001,7.947 0,5.404 -3.418,8.027 -10.332,8.027 -1.351,0 -2.543,0 -5.007,-0.159 z m -12.954,25.829 1.271,0.08 c 5.961,0.397 10.809,0.635 15.18,0.635 8.742,0 13.987,-1.192 18.2,-4.212 4.45,-3.179 6.993,-8.424 6.993,-14.623 0,-6.358 -2.861,-11.842 -7.947,-14.782 -4.212,-2.464 -9.299,-3.577 -16.451,-3.577 -1.113,0 -2.226,0.08 -4.133,0.159 v -20.027 h -13.113 z" style="fill:currentColor;fill-opacity:1;fill-rule:nonzero;stroke:none" id="path22" /></g><g id="g24" transform="translate(351.9457,307.0577)"><path d="m 0,0 v -22.412 c 0,-5.086 1.431,-6.676 6.199,-6.676 1.669,0 3.338,0.239 4.927,0.636 V 0 h 12.319 v -37.512 l -1.51,-0.238 c -6.596,-1.192 -11.285,-1.669 -16.292,-1.669 -6.597,0 -11.127,1.271 -13.988,3.894 -2.94,2.702 -3.974,6.04 -3.974,13.272 V 0 Z" style="fill:currentColor;fill-opacity:1;fill-rule:nonzero;stroke:none" id="path26" /></g><g id="g28" transform="translate(381.7451,306.263)"><path d="m 0,0 h 6.278 v 0.954 c 0,8.583 1.59,13.192 5.723,16.61 3.099,2.622 7.868,4.212 12.954,4.212 1.669,0 2.782,-0.159 4.609,-0.556 v -9.776 c -1.192,0.318 -1.986,0.398 -3.02,0.398 -2.702,0 -4.927,-0.875 -6.199,-2.385 C 18.994,7.947 18.597,5.802 18.597,0.715 V 0 h 9.378 V -9.06 H 18.597 V -38.148 H 6.278 V -9.06 H 0 Z" style="fill:currentColor;fill-opacity:1;fill-rule:nonzero;stroke:none" id="path30" /></g><g id="g32" transform="translate(411.7042,306.263)"><path d="m 0,0 h 6.278 v 0.954 c 0,8.583 1.59,13.192 5.723,16.61 3.099,2.622 7.868,4.212 12.954,4.212 1.669,0 2.782,-0.159 4.609,-0.556 v -9.776 c -1.192,0.318 -1.986,0.398 -3.02,0.398 -2.702,0 -4.927,-0.875 -6.199,-2.385 C 18.994,7.947 18.597,5.802 18.597,0.715 V 0 h 9.378 V -9.06 H 18.597 V -38.148 H 6.278 V -9.06 H 0 Z" style="fill:currentColor;fill-opacity:1;fill-rule:nonzero;stroke:none" id="path34" /></g><g id="g36" transform="translate(468.7914,292.2755)"><path d="m 0,0 c -0.397,4.609 -2.702,7.073 -6.676,7.073 -4.133,0 -6.994,-2.702 -7.629,-7.073 z m -14.464,-8.186 c 0.397,-4.927 4.132,-7.629 10.57,-7.629 4.848,0 9.298,1.351 13.034,3.894 v -9.458 c -4.689,-2.463 -9.537,-3.655 -14.783,-3.655 -13.033,0 -20.663,7.391 -20.663,20.027 0,12.557 7.788,20.743 19.63,20.743 11.365,0 17.882,-7.312 17.882,-20.107 0,-0.636 0,-1.669 -0.08,-2.941 l -0.079,-0.874 z" style="fill:currentColor;fill-opacity:1;fill-rule:nonzero;stroke:none" id="path38" /></g><g id="g40" transform="translate(485.9305,304.1966)"><path d="m 0,0 c 6.199,2.464 12.636,3.735 18.676,3.735 3.338,0 5.723,-0.397 8.504,-1.271 V -7.947 c -2.225,0.953 -4.53,1.351 -7.232,1.351 -2.702,0 -5.086,-0.398 -7.629,-1.351 V -36.081 H 0 Z" style="fill:currentColor;fill-opacity:1;fill-rule:nonzero;stroke:none" id="path42" /></g><g id="g44" transform="translate(532.8971,298.6334)"><path d="m 0,0 c 1.431,-0.079 2.305,-0.079 3.338,-0.079 8.583,0 12.001,2.304 12.001,7.947 0,5.404 -3.418,8.027 -10.332,8.027 -1.351,0 -2.543,0 -5.007,-0.159 z m -12.954,25.829 1.271,0.08 c 5.961,0.397 10.809,0.635 15.18,0.635 8.742,0 13.987,-1.192 18.199,-4.212 4.451,-3.179 6.994,-8.424 6.994,-14.623 0,-6.358 -2.861,-11.842 -7.947,-14.782 -4.212,-2.464 -9.299,-3.577 -16.451,-3.577 -1.113,0 -2.226,0.08 -4.133,0.159 v -20.027 h -13.113 z" style="fill:currentColor;fill-opacity:1;fill-rule:nonzero;stroke:none" id="path46" /></g><g id="g48" transform="translate(585.4022,284.8049)"><path d="m 0,0 c -7.947,-0.795 -10.491,-2.066 -10.491,-5.245 0,-2.385 1.51,-3.497 4.848,-3.497 1.749,0 3.338,0.159 5.643,0.556 z m -18.915,19.471 c 5.404,2.543 10.57,3.656 16.213,3.656 6.278,0 10.411,-1.669 12.239,-4.927 1.033,-1.828 1.351,-4.213 1.351,-9.299 v -24.875 c -5.484,-0.795 -12.398,-1.351 -17.484,-1.351 -10.253,0 -14.862,3.576 -14.862,11.523 0,8.584 6.119,12.557 21.14,13.829 v 2.702 c 0,2.305 -1.113,3.179 -4.212,3.179 -4.53,0 -9.616,-1.351 -14.385,-3.894 z" style="fill:currentColor;fill-opacity:1;fill-rule:nonzero;stroke:none" id="path50" /></g><g id="g52" transform="translate(603.4155,305.1503)"><path d="m 0,0 c 7.232,1.907 13.193,2.782 19.233,2.782 6.278,0 10.808,-1.431 13.51,-4.213 2.544,-2.622 3.338,-5.483 3.338,-11.603 V -37.035 H 23.842 v 23.524 c 0,4.61 -1.589,6.279 -5.881,6.279 -1.669,0 -3.179,-0.159 -5.643,-0.715 V -37.035 H 0 Z" style="fill:currentColor;fill-opacity:1;fill-rule:nonzero;stroke:none" id="path54" /></g><g id="g56" transform="translate(672.4225,292.2755)"><path d="m 0,0 c -0.397,4.609 -2.702,7.073 -6.676,7.073 -4.133,0 -6.994,-2.702 -7.629,-7.073 z m -14.464,-8.186 c 0.397,-4.927 4.132,-7.629 10.57,-7.629 4.848,0 9.298,1.351 13.034,3.894 v -9.458 c -4.689,-2.463 -9.537,-3.655 -14.783,-3.655 -13.034,0 -20.663,7.391 -20.663,20.027 0,12.557 7.788,20.743 19.63,20.743 11.365,0 17.882,-7.312 17.882,-20.107 0,-0.636 0,-1.669 -0.08,-2.941 l -0.079,-0.874 z" style="fill:currentColor;fill-opacity:1;fill-rule:nonzero;stroke:none" id="path58" /></g><path d="m 689.799,327.721 h 12.318 v -59.606 h -12.318 z" style="fill:currentColor;fill-opacity:1;fill-rule:nonzero;stroke:none" id="path60" /></g></g></g></svg>
